<?xml version="1.0" encoding="UTF-8"?> <svg xmlns="http://www.w3.org/2000/svg" id="Layer_3" height="512" viewBox="0 0 64 64" width="512"><path d="m60.121 58.707c-.723-.723-1.121-1.685-1.121-2.707s.398-1.984 1.121-2.707l2.586-2.586c.286-.286.372-.716.217-1.09-.155-.373-.52-.617-.924-.617h-7.11c1.3-1.272 2.11-3.042 2.11-5 0-3.86-3.14-7-7-7h-9.297l9.686-4.078c.37-.156.611-.52.611-.922v-10.068l5-2.037v6.691l-2.707 2.707c-.304.304-.38.769-.188 1.154l3 6c.17.339.516.553.895.553s.725-.214.895-.553l3-6c.192-.385.117-.85-.188-1.154l-2.707-2.707v-7.506l.377-.154c.387-.158.636-.541.622-.959s-.286-.784-.683-.916l-27-9c-.206-.068-.427-.068-.633 0l-27 9c-.396.133-.669.498-.683.916s.235.801.622.959l7.378 3.006v10.068c0 .402.241.766.612.922l9.685 4.078h-19.297c-.404 0-.769.244-.924.617-.155.374-.069.804.217 1.09l2.586 2.586c.723.723 1.121 1.685 1.121 2.707s-.398 1.984-1.121 2.707l-2.586 2.586c-.286.286-.372.716-.217 1.09.155.373.52.617.924.617h7.11c-1.3 1.272-2.11 3.042-2.11 5 0 3.86 3.14 7 7 7h48c.404 0 .769-.244.924-.617.155-.374.069-.804-.217-1.09zm-3.121-24.943-1.783-3.567 1.783-1.783 1.783 1.783zm2.586 17.236-.879.879c-.861.861-1.414 1.945-1.617 3.121h-43.09v-4h36zm-4.586-7c0 2.045-1.237 3.802-3 4.576v-9.152c1.763.774 3 2.531 3 4.576zm-6-12.664-13.452 5.664h-.048v.02l-3.5 1.474v-8.821l17-6.926zm-18-21.282 24.119 8.04-24.119 9.826-24.119-9.826zm-18 12.693 17 6.926v8.821l-17-7.158zm-8.586 16.253h21.633l4.564 1.922c.125.052.257.078.389.078s.264-.026.388-.078l4.565-1.922h14.047v4h-43.09c-.203-1.176-.756-2.26-1.617-3.121zm0 10 .879-.879c.861-.861 1.414-1.945 1.617-3.121h43.09v4h-36zm4.586 7c0-2.045 1.237-3.802 3-4.576v9.152c-1.763-.774-3-2.531-3-4.576zm5 5v-4h43.09c.203 1.176.756 2.26 1.617 3.121l.879.879z"></path><path d="m47.684 6.949c1.582.527 2.84 1.786 3.367 3.367.137.409.518.684.949.684s.812-.275.949-.684c.527-1.582 1.786-2.84 3.367-3.367.409-.137.684-.518.684-.949s-.275-.812-.684-.949c-1.582-.527-2.84-1.786-3.367-3.367-.137-.409-.518-.684-.949-.684s-.812.275-.949.684c-.527 1.582-1.786 2.84-3.367 3.367-.409.137-.684.518-.684.949s.275.812.684.949zm4.316-2.753c.492.701 1.103 1.312 1.804 1.804-.701.492-1.312 1.103-1.804 1.804-.492-.701-1.103-1.312-1.804-1.804.701-.492 1.312-1.103 1.804-1.804z"></path><path d="m5.684 8.949c1.582.527 2.84 1.786 3.367 3.367.137.409.518.684.949.684s.812-.275.949-.684c.527-1.582 1.786-2.84 3.367-3.367.409-.137.684-.518.684-.949s-.275-.812-.684-.949c-1.582-.527-2.84-1.786-3.367-3.367-.137-.409-.518-.684-.949-.684s-.812.275-.949.684c-.527 1.582-1.786 2.84-3.367 3.367-.409.137-.684.518-.684.949s.275.812.684.949zm4.316-2.753c.492.701 1.103 1.312 1.804 1.804-.701.492-1.312 1.103-1.804 1.804-.492-.701-1.103-1.312-1.804-1.804.701-.492 1.312-1.103 1.804-1.804z"></path></svg> 