<?xml version="1.0" encoding="UTF-8"?> <svg xmlns="http://www.w3.org/2000/svg" id="Layer_1" height="512" viewBox="0 0 128 128" width="512" data-name="Layer 1"><path d="m118.936 54.917a9.1 9.1 0 0 0 -8.91 7.333h-19.089a26.88 26.88 0 0 0 -6.662-16.05l13.507-13.508a9.083 9.083 0 1 0 -2.475-2.474l-13.507 13.507a26.88 26.88 0 0 0 -16.05-6.662v-19.088a9.083 9.083 0 1 0 -3.5 0v19.088a26.88 26.88 0 0 0 -16.05 6.662l-13.508-13.507a9.076 9.076 0 1 0 -2.475 2.474l13.508 13.508a26.88 26.88 0 0 0 -6.662 16.05h-19.088a9.083 9.083 0 1 0 0 3.5h19.088a26.88 26.88 0 0 0 6.662 16.05l-13.507 13.508a9.083 9.083 0 1 0 2.475 2.474l13.507-13.507a27.063 27.063 0 0 0 16.05 6.662v19.088a9.083 9.083 0 1 0 3.5 0v-19.088a27.063 27.063 0 0 0 16.05-6.662l13.508 13.507a9.084 9.084 0 1 0 2.475-2.474l-13.508-13.508a26.88 26.88 0 0 0 6.662-16.05h19.088a9.082 9.082 0 1 0 8.91-10.833zm-20.036-33.711a5.583 5.583 0 1 1 -1.636 3.948 5.592 5.592 0 0 1 1.636-3.948zm-40.483-12.142a5.583 5.583 0 1 1 5.583 5.583 5.59 5.59 0 0 1 -5.583-5.583zm-37.211 20.036a5.583 5.583 0 1 1 3.948 1.636 5.592 5.592 0 0 1 -3.948-1.636zm-12.142 40.483a5.583 5.583 0 1 1 5.583-5.583 5.59 5.59 0 0 1 -5.583 5.583zm20.036 37.211a5.583 5.583 0 1 1 1.636-3.948 5.592 5.592 0 0 1 -1.636 3.948zm28.5-28.6a1.754 1.754 0 0 0 .663-1.041l.375-1.79a6.328 6.328 0 0 0 -1.673-5.714 9.81 9.81 0 1 1 14.052 0 6.317 6.317 0 0 0 -1.668 5.711l.375 1.788a1.754 1.754 0 0 0 .663 1.041l6.9 5.172a23.718 23.718 0 0 1 -26.586 0zm11.977 40.742a5.583 5.583 0 1 1 -5.577-5.583 5.59 5.59 0 0 1 5.583 5.583zm37.217-20.036a5.583 5.583 0 1 1 -3.948-1.636 5.592 5.592 0 0 1 3.948 1.636zm-26.694-17.806-7.08-5.306-.239-1.142a2.82 2.82 0 0 1 .748-2.55 13.308 13.308 0 1 0 -19.065-.007 2.833 2.833 0 0 1 .755 2.556l-.239 1.143-7.08 5.306a23.5 23.5 0 1 1 32.2 0zm38.835-11.511a5.583 5.583 0 1 1 5.585-5.583 5.59 5.59 0 0 1 -5.584 5.583z"></path></svg> 